<svg width="23" height="23" viewBox="0 0 23 23" fill="none" xmlns="http://www.w3.org/2000/svg">
<path d="M9.7002 1.87842C9.21407 2.36167 9.22432 3.15047 9.72041 3.62391L15.819 9.46571H1.27333C0.600119 9.46571 0.0585938 10.0102 0.0585938 10.6871V12.3156C0.0585938 12.9923 0.600119 13.537 1.27333 13.537H15.819L9.72041 19.3789C9.22935 19.8521 9.21919 20.6408 9.7002 21.1243L10.8238 22.2541C11.2943 22.7325 12.0635 22.7325 12.5394 22.2541L22.3782 12.3613C22.8539 11.8881 22.8539 11.1147 22.3782 10.6362L12.5394 0.74849C12.0687 0.270197 11.2993 0.270197 10.8238 0.74849L9.7002 1.87842Z" fill="#F9E5C3"/>
</svg>
