<svg width="19" height="19" viewBox="0 0 19 19" fill="none" xmlns="http://www.w3.org/2000/svg">
<path d="M14.2695 3.99984H18.8529V5.83317H17.0195V17.7498C17.0195 18.0065 16.9309 18.2234 16.7537 18.4007C16.5765 18.5779 16.3595 18.6665 16.1029 18.6665H3.26953C3.01286 18.6665 2.79592 18.5779 2.6187 18.4007C2.44148 18.2234 2.35286 18.0065 2.35286 17.7498V5.83317H0.519531V3.99984H5.10286V1.24984C5.10286 0.993172 5.19148 0.776226 5.3687 0.599005C5.54592 0.421782 5.76286 0.333172 6.01953 0.333172H13.3529C13.6095 0.333172 13.8265 0.421782 14.0037 0.599005C14.1809 0.776226 14.2695 0.993172 14.2695 1.24984V3.99984ZM15.1862 5.83317H4.1862V16.8332H15.1862V5.83317ZM6.9362 8.58317H8.76953V14.0832H6.9362V8.58317ZM10.6029 8.58317H12.4362V14.0832H10.6029V8.58317ZM6.9362 2.1665V3.99984H12.4362V2.1665H6.9362Z" fill="#555555"/>
</svg>
